<svg version="1.2" xmlns="http://www.w3.org/2000/svg" viewBox="0 0 24 24" width="512" height="512">
	<style>
		.s0 { fill: #ffffff } 
	</style>
	<g id="Layer 1">
		<path class="s0" d="m22 2q0.4 0 0.77 0.15 0.36 0.16 0.64 0.44 0.28 0.28 0.44 0.64 0.15 0.37 0.15 0.77v12q0 0.4-0.15 0.77-0.16 0.36-0.44 0.64-0.28 0.28-0.64 0.44-0.37 0.15-0.77 0.15h-16c-1.11 0-2-0.9-2-2v-12c0-1.11 0.89-2 2-2zm0 4v-2l-8 5-8-5v2l8 5zm-20 0v14h18v2h-18q-0.4 0-0.77-0.15-0.36-0.16-0.64-0.44-0.28-0.28-0.44-0.64-0.15-0.37-0.15-0.77v-14z"/>
	</g>
</svg>